<svg width="16" height="16" viewBox="0 0 16 16" fill="none" xmlns="http://www.w3.org/2000/svg">
<path d="M13.3664 7.08703L10.253 5.74703L9.55971 5.4537C9.45305 5.40036 9.35971 5.26036 9.35971 5.14036V3.10036C9.35971 2.46036 8.88638 1.70036 8.31305 1.40703C8.11305 1.30703 7.87305 1.30703 7.67305 1.40703C7.10638 1.70036 6.63305 2.46703 6.63305 3.10703V5.14703C6.63305 5.26703 6.53971 5.40703 6.43305 5.46036L2.63305 7.0937C2.21305 7.26703 1.87305 7.7937 1.87305 8.24703V9.12703C1.87305 9.6937 2.29971 9.9737 2.82638 9.74703L6.16638 8.30703C6.42638 8.1937 6.63971 8.3337 6.63971 8.62036V9.36036V10.5604C6.63971 10.7137 6.55305 10.9337 6.44638 11.0404L4.89971 12.5937C4.73971 12.7537 4.66638 13.067 4.73971 13.2937L5.03971 14.2004C5.15971 14.5937 5.60638 14.7804 5.97305 14.5937L7.55971 13.2604C7.79971 13.0537 8.19305 13.0537 8.43305 13.2604L10.0197 14.5937C10.3864 14.7737 10.833 14.5937 10.9664 14.2004L11.2664 13.2937C11.3397 13.0737 11.2664 12.7537 11.1064 12.5937L9.55971 11.0404C9.44638 10.9337 9.35971 10.7137 9.35971 10.5604V8.62036C9.35971 8.3337 9.56638 8.20036 9.83305 8.30703L13.173 9.74703C13.6997 9.9737 14.1264 9.6937 14.1264 9.12703V8.24703C14.1264 7.7937 13.7864 7.26703 13.3664 7.08703Z" fill="#475467"/>
</svg>
