<svg width="108" height="16" viewBox="0 0 108 16" fill="none" xmlns="http://www.w3.org/2000/svg">
<path d="M1.49012e-08 15V0.999999H2.4L9.78 11.02V0.999999H12.18V15H9.78L2.4 4.94V15H1.49012e-08ZM13.3109 10C13.3109 6.52 15.1309 4.7 18.9109 4.7C22.6909 4.7 24.5109 6.52 24.5109 10C24.5109 13.48 22.6909 15.3 18.9109 15.3C15.1309 15.3 13.3109 13.48 13.3109 10ZM15.7109 10C15.7109 12.06 16.7509 13.14 18.9109 13.14C21.0709 13.14 22.1109 12.06 22.1109 10C22.1109 7.92 21.0709 6.84 18.9109 6.84C16.6709 6.84 15.7109 7.92 15.7109 10ZM35.3733 15H33.0733V9.22C33.0733 7.92 32.6333 6.84 30.8533 6.84C29.2533 6.84 28.4133 7.92 28.4133 9.98V15H26.1133V5H28.4133V6.38C29.0533 5.32 30.0933 4.7 31.6733 4.7C33.1733 4.7 34.2333 5.26 34.8133 6.36C35.4133 5.4 36.4533 4.7 38.1133 4.7C41.0333 4.7 42.3133 6.02 42.3133 9.42V15H40.0133V9.62C40.0133 7.92 39.5733 6.84 37.8133 6.84C36.1933 6.84 35.3733 7.92 35.3733 9.24V15ZM51.4611 8.62C51.4611 6.8 49.8811 6.64 48.7811 6.64C47.6411 6.64 46.1811 6.76 46.1811 8.46H44.0811C44.0811 5.76 45.8811 4.7 48.7811 4.7C52.1211 4.7 53.7611 5.76 53.7611 8.96V15H51.4611V13.64C51.0611 14.62 50.1211 15.3 47.9211 15.3C45.4011 15.3 43.5211 14.64 43.5211 12.16C43.5211 10.16 45.1011 9.32 47.9211 9.02L51.4611 8.66V8.62ZM51.4611 10.32L48.2611 10.64C46.9611 10.78 45.9211 11.14 45.9211 12.12C45.9211 12.88 46.5211 13.34 48.2411 13.34C50.4811 13.34 51.3611 12.38 51.4611 11.64V10.32ZM63.4264 15V13.48C62.8464 14.58 61.8264 15.3 60.0264 15.3C57.2464 15.3 55.1664 13.48 55.1664 10C55.1664 6.52 56.9464 4.7 59.9464 4.7C61.7864 4.7 62.8464 5.34 63.4264 6.46V-1.19209e-06H65.7264V15H63.4264ZM57.5664 9.98C57.5664 12.04 58.5664 13.14 60.4664 13.14C62.4264 13.14 63.4264 12.04 63.4264 9.98C63.4264 7.92 62.4264 6.84 60.4664 6.84C58.2864 6.84 57.5664 7.92 57.5664 9.98ZM80.3269 0.999999L74.7869 15H72.1869L66.6469 0.999999H69.2469L73.4869 11.72L77.7269 0.999999H80.3269ZM80.578 1.96C80.578 0.94 81.018 0.459999 82.078 0.459999C83.118 0.459999 83.578 0.94 83.578 1.96C83.578 2.96 83.118 3.46 82.078 3.46C81.018 3.46 80.578 2.96 80.578 1.96ZM80.918 15V5H83.218V15H80.918ZM87.5148 15H85.2148V-1.19209e-06H87.5148V6.4C88.0748 5.32 89.0748 4.7 90.8148 4.7C93.5348 4.7 95.3748 6.52 95.3748 10C95.3748 13.48 93.2348 15.3 90.7348 15.3C89.0348 15.3 88.0548 14.6 87.5148 13.52V15ZM92.9748 9.98C92.9748 7.92 92.1748 6.84 90.2748 6.84C88.4748 6.84 87.5148 7.92 87.5148 9.98C87.5148 12.04 88.4748 13.14 90.2748 13.14C91.9148 13.14 92.9748 12.04 92.9748 9.98ZM107.073 10.28V10.68H99.0127C99.2127 12.66 100.353 13.34 102.173 13.34C103.733 13.34 104.853 12.54 104.853 11.58L106.953 11.6C106.953 13.8 105.273 15.3 102.173 15.3C98.4127 15.3 96.5727 13.46 96.5727 9.98C96.5727 6.58 98.4327 4.7 101.813 4.7C105.573 4.7 107.073 6.6 107.073 10.28ZM99.0727 8.98H104.793C104.573 7.34 103.473 6.64 101.913 6.64C100.513 6.64 99.3927 7.44 99.0727 8.98Z" fill="#FCFCFC"/>
</svg>
