<svg width="16" height="16" viewBox="0 0 16 16" fill="none" xmlns="http://www.w3.org/2000/svg">
<path fill-rule="evenodd" clip-rule="evenodd" d="M11.8209 6.37211C11.6995 6.17678 11.4855 6.05878 11.2555 6.05878C11.0262 6.05878 10.8122 6.17678 10.6902 6.37211C9.84285 7.72878 8.34018 10.1321 8.34018 10.1321C8.19418 10.3668 7.88552 10.4374 7.65152 10.2914C7.41685 10.1454 7.34619 9.83678 7.49219 9.60278C7.49219 9.60278 8.89218 7.36211 9.44552 6.47745C9.58018 6.26145 9.58018 5.98678 9.44552 5.77078C8.87952 4.86611 7.42352 2.53611 7.42352 2.53611C7.33218 2.38945 7.17219 2.30078 6.99952 2.30078C6.82685 2.30078 6.66685 2.38945 6.57552 2.53611L0.908852 11.6028C0.812852 11.7568 0.807519 11.9508 0.895519 12.1101C0.983519 12.2688 1.15085 12.3674 1.33285 12.3674H14.6662C14.8482 12.3674 15.0155 12.2688 15.1035 12.1101C15.1915 11.9508 15.1862 11.7568 15.0902 11.6028C15.0902 11.6028 12.8875 8.07811 11.8209 6.37211Z" fill="#475467"/>
</svg>
