<svg width="20" height="16" viewBox="0 0 20 16" fill="none" xmlns="http://www.w3.org/2000/svg">
<path d="M19.0459 8.79586L12.2959 15.5459C12.0846 15.7572 11.7979 15.8759 11.4991 15.8759C11.2002 15.8759 10.9135 15.7572 10.7022 15.5459C10.4908 15.3345 10.3721 15.0479 10.3721 14.749C10.3721 14.4501 10.4908 14.1635 10.7022 13.9521L15.5312 9.12492H1.75C1.45163 9.12492 1.16548 9.00639 0.954505 8.79541C0.743526 8.58444 0.625 8.29829 0.625 7.99992C0.625 7.70155 0.743526 7.4154 0.954505 7.20442C1.16548 6.99345 1.45163 6.87492 1.75 6.87492H15.5312L10.7041 2.04492C10.4927 1.83358 10.374 1.54693 10.374 1.24804C10.374 0.949159 10.4927 0.662514 10.7041 0.45117C10.9154 0.239826 11.2021 0.121094 11.5009 0.121094C11.7998 0.121094 12.0865 0.239826 12.2978 0.45117L19.0478 7.20117C19.1527 7.30583 19.2359 7.43018 19.2926 7.56707C19.3493 7.70397 19.3784 7.85073 19.3782 7.9989C19.3781 8.14708 19.3486 8.29377 19.2916 8.43053C19.2346 8.5673 19.1511 8.69145 19.0459 8.79586Z" fill="#475569"/>
</svg>
