<svg width="16" height="16" viewBox="0 0 16 16" fill="none" xmlns="http://www.w3.org/2000/svg">
<path d="M11.5837 7.99935C11.5837 9.97837 9.97935 11.5827 8.00033 11.5827C6.02131 11.5827 4.41699 9.97837 4.41699 7.99935C4.41699 6.02033 6.02131 4.41602 8.00033 4.41602C9.97935 4.41602 11.5837 6.02033 11.5837 7.99935Z" fill="white" stroke="#475467" stroke-width="1.5" stroke-linecap="round" stroke-linejoin="round"/>
<path d="M12.7597 12.7607L12.673 12.674M12.673 3.32732L12.7597 3.24065L12.673 3.32732ZM3.23967 12.7607L3.32634 12.674L3.23967 12.7607ZM7.99967 1.38732V1.33398V1.38732ZM7.99967 14.6673V14.614V14.6673ZM1.38634 8.00065H1.33301H1.38634ZM14.6663 8.00065H14.613H14.6663ZM3.32634 3.32732L3.23967 3.24065L3.32634 3.32732Z" stroke="#475467" stroke-width="2" stroke-linecap="round" stroke-linejoin="round"/>
</svg>
